<?xml version="1.0" standalone="no"?>
<!DOCTYPE svg PUBLIC "-//W3C//DTD SVG 20010904//EN"
 "http://www.w3.org/TR/2001/REC-SVG-20010904/DTD/svg10.dtd">
<svg version="1.0" xmlns="http://www.w3.org/2000/svg"
 width="256.000000pt" height="256.000000pt" viewBox="0 0 256.000000 256.000000"
 preserveAspectRatio="xMidYMid meet">

<g transform="translate(0.000000,256.000000) scale(0.100000,-0.100000)"
fill="#000000" stroke="none">
<path d="M1118 2490 c-261 -41 -494 -153 -678 -327 -509 -479 -520 -1275 -25
-1768 174 -174 387 -288 635 -341 116 -25 353 -25 468 0 254 54 460 164 637
341 159 159 269 351 327 572 29 110 31 130 32 298 1 167 -1 188 -28 290 -56
217 -152 393 -296 548 -173 185 -364 298 -610 362 -86 22 -132 28 -255 30 -82
2 -175 0 -207 -5z m-808 -950 c0 -14 -7 -20 -24 -20 -32 0 -36 -16 -29 -108 5
-69 3 -79 -15 -95 l-20 -19 20 -20 c19 -19 20 -28 14 -100 -7 -86 0 -108 36
-108 13 0 18 -6 16 -17 -3 -13 -13 -18 -36 -16 -57 2 -64 15 -60 121 3 89 1
96 -20 110 -25 16 -30 52 -8 52 25 0 30 20 27 113 -2 104 10 127 66 127 26 0
33 -4 33 -20z m2021 -1 c20 -20 21 -28 14 -110 -6 -86 -6 -88 19 -104 33 -22
33 -38 0 -60 -25 -16 -25 -19 -19 -90 4 -41 5 -85 1 -98 -6 -24 -43 -47 -76
-47 -29 0 -26 38 3 42 21 3 22 8 25 101 2 83 6 99 22 109 17 11 17 13 2 24
-13 10 -18 34 -22 111 -5 92 -6 98 -27 101 -15 2 -23 10 -23 23 0 27 53 26 81
-2z m-1791 -104 c36 -19 50 -43 50 -90 0 -35 -28 -76 -59 -86 -9 -3 -2 -22 23
-64 20 -33 36 -63 36 -67 0 -5 -11 -8 -24 -8 -19 0 -32 13 -61 65 -29 52 -41
65 -60 65 -24 0 -25 -3 -25 -65 0 -63 -1 -65 -25 -65 l-25 0 0 165 0 165 70 0
c44 0 82 -6 100 -15z m1031 -14 c16 -16 29 -34 29 -40 0 -19 -45 -12 -63 9
-19 23 -76 27 -95 8 -19 -19 -14 -56 11 -72 12 -8 41 -19 65 -26 58 -15 82
-41 82 -87 -1 -63 -38 -93 -115 -93 -38 0 -52 5 -76 29 -36 37 -38 61 -4 61
14 0 25 -4 25 -9 0 -20 33 -41 65 -41 32 0 65 21 65 41 0 28 -26 49 -85 69
-99 33 -125 92 -66 151 25 25 37 29 81 29 44 0 56 -4 81 -29z m-301 -11 c0
-28 3 -30 35 -30 28 0 35 -4 35 -20 0 -16 -7 -20 -35 -20 l-35 0 0 -74 c0 -94
5 -106 41 -106 22 0 29 -5 29 -20 0 -16 -7 -20 -33 -20 -18 0 -43 7 -55 16
-20 14 -22 23 -22 108 0 85 -2 94 -20 99 -11 3 -20 10 -20 17 0 7 9 14 20 17
14 4 20 14 20 34 0 22 5 29 20 29 16 0 20 -7 20 -30z m-436 -51 l26 -20 0 20
c0 14 6 21 20 21 19 0 20 -7 20 -130 0 -123 -1 -130 -20 -130 -14 0 -20 7 -20
21 l0 20 -26 -20 c-54 -43 -149 -19 -179 45 -30 63 -8 151 44 179 39 21 104
19 135 -6z m301 -4 c33 -32 32 -55 0 -55 -15 0 -25 6 -25 14 0 29 -84 37 -94
10 -9 -24 9 -40 61 -58 58 -20 83 -42 83 -74 0 -45 -36 -72 -95 -72 -43 0 -57
5 -79 26 -14 15 -26 33 -26 40 0 22 40 16 59 -7 20 -25 66 -28 89 -6 22 22 1
44 -54 58 -54 14 -84 42 -84 79 0 44 34 70 92 70 39 0 54 -5 73 -25z m713 9
c29 -20 52 -66 52 -104 l0 -30 -100 0 c-82 0 -100 -3 -100 -15 0 -28 38 -55
78 -55 26 0 45 7 57 20 21 23 55 27 55 6 0 -8 -14 -26 -31 -40 -36 -31 -102
-35 -149 -11 -79 41 -80 187 -2 229 36 20 112 20 140 0z m290 2 c57 -31 78
-114 47 -180 -41 -85 -187 -89 -230 -6 -31 60 -9 156 44 185 32 18 108 19 139
1z"/>
<path d="M420 1350 l0 -60 33 0 c72 0 107 33 88 84 -11 28 -29 36 -82 36 l-39
0 0 -60z"/>
<path d="M715 1315 c-32 -31 -34 -91 -4 -129 40 -51 128 -28 145 39 22 90 -78
154 -141 90z"/>
<path d="M1720 1320 c-39 -39 -27 -50 55 -50 66 0 75 2 75 18 0 49 -91 71
-130 32z"/>
<path d="M2010 1318 c-29 -32 -28 -107 3 -136 32 -30 87 -29 115 1 31 33 31
105 -1 135 -31 30 -89 30 -117 0z"/>
</g>
</svg>
